<mxfile host="app.diagrams.net" modified="2024-05-01T12:40:46.897Z" agent="Mozilla/5.0 (Windows NT 10.0; Win64; x64) AppleWebKit/537.36 (KHTML, like Gecko) Chrome/124.0.0.0 Safari/537.36" etag="N15wr7TtfdAsrB3d-EyV" version="24.3.1" type="device">
  <diagram name="Page-1" id="v2Yx1y-v2kIVJgKI9KRZ">
    <mxGraphModel dx="2909" dy="1454" grid="1" gridSize="10" guides="1" tooltips="1" connect="1" arrows="1" fold="1" page="1" pageScale="1" pageWidth="850" pageHeight="1100" math="0" shadow="0">
      <root>
        <mxCell id="0" />
        <mxCell id="1" parent="0" />
        <mxCell id="g0LMdy6BWs_bw-SiAegQ-1" value="Student" style="rounded=0;whiteSpace=wrap;html=1;" vertex="1" parent="1">
          <mxGeometry x="440" y="500" width="120" height="60" as="geometry" />
        </mxCell>
        <mxCell id="g0LMdy6BWs_bw-SiAegQ-2" value="&lt;u&gt;StudentID&amp;nbsp;&lt;/u&gt;" style="ellipse;whiteSpace=wrap;html=1;" vertex="1" parent="1">
          <mxGeometry x="380" y="430" width="70" height="40" as="geometry" />
        </mxCell>
        <mxCell id="g0LMdy6BWs_bw-SiAegQ-5" value="Name" style="ellipse;whiteSpace=wrap;html=1;" vertex="1" parent="1">
          <mxGeometry x="465" y="420" width="70" height="40" as="geometry" />
        </mxCell>
        <mxCell id="g0LMdy6BWs_bw-SiAegQ-6" value="" style="endArrow=none;html=1;rounded=0;fontSize=12;startSize=8;endSize=8;curved=1;entryX=0.5;entryY=1;entryDx=0;entryDy=0;exitX=0;exitY=0;exitDx=0;exitDy=0;" edge="1" parent="1" source="g0LMdy6BWs_bw-SiAegQ-1" target="g0LMdy6BWs_bw-SiAegQ-2">
          <mxGeometry width="50" height="50" relative="1" as="geometry">
            <mxPoint x="400" y="570" as="sourcePoint" />
            <mxPoint x="450" y="520" as="targetPoint" />
          </mxGeometry>
        </mxCell>
        <mxCell id="g0LMdy6BWs_bw-SiAegQ-7" value="" style="endArrow=none;html=1;rounded=0;fontSize=12;startSize=8;endSize=8;curved=1;entryX=0.5;entryY=1;entryDx=0;entryDy=0;exitX=0.5;exitY=0;exitDx=0;exitDy=0;" edge="1" parent="1" source="g0LMdy6BWs_bw-SiAegQ-1" target="g0LMdy6BWs_bw-SiAegQ-5">
          <mxGeometry width="50" height="50" relative="1" as="geometry">
            <mxPoint x="460" y="570" as="sourcePoint" />
            <mxPoint x="510" y="520" as="targetPoint" />
          </mxGeometry>
        </mxCell>
        <mxCell id="g0LMdy6BWs_bw-SiAegQ-8" value="Email" style="ellipse;whiteSpace=wrap;html=1;" vertex="1" parent="1">
          <mxGeometry x="330" y="480" width="70" height="40" as="geometry" />
        </mxCell>
        <mxCell id="g0LMdy6BWs_bw-SiAegQ-9" value="" style="endArrow=none;html=1;rounded=0;fontSize=12;startSize=8;endSize=8;curved=1;exitX=1;exitY=0.5;exitDx=0;exitDy=0;" edge="1" parent="1" source="g0LMdy6BWs_bw-SiAegQ-8">
          <mxGeometry width="50" height="50" relative="1" as="geometry">
            <mxPoint x="410" y="570" as="sourcePoint" />
            <mxPoint x="440" y="520" as="targetPoint" />
          </mxGeometry>
        </mxCell>
        <mxCell id="g0LMdy6BWs_bw-SiAegQ-10" value="Password" style="ellipse;whiteSpace=wrap;html=1;" vertex="1" parent="1">
          <mxGeometry x="320" y="540" width="80" height="40" as="geometry" />
        </mxCell>
        <mxCell id="g0LMdy6BWs_bw-SiAegQ-11" value="" style="endArrow=none;html=1;rounded=0;fontSize=12;startSize=8;endSize=8;curved=1;entryX=0;entryY=0.75;entryDx=0;entryDy=0;exitX=1;exitY=0.5;exitDx=0;exitDy=0;" edge="1" parent="1" source="g0LMdy6BWs_bw-SiAegQ-10" target="g0LMdy6BWs_bw-SiAegQ-1">
          <mxGeometry width="50" height="50" relative="1" as="geometry">
            <mxPoint x="370" y="570" as="sourcePoint" />
            <mxPoint x="420" y="520" as="targetPoint" />
          </mxGeometry>
        </mxCell>
        <mxCell id="g0LMdy6BWs_bw-SiAegQ-12" value="&lt;div style=&quot;font-size: 11px;&quot;&gt;&lt;font style=&quot;font-size: 11px;&quot;&gt;Dietary&lt;/font&gt;&lt;/div&gt;&lt;div style=&quot;font-size: 11px;&quot;&gt;&lt;font style=&quot;font-size: 11px;&quot;&gt;Preferences&lt;/font&gt;&lt;/div&gt;&lt;div style=&quot;font-size: 11px;&quot;&gt;&lt;br&gt;&lt;/div&gt;" style="ellipse;whiteSpace=wrap;html=1;" vertex="1" parent="1">
          <mxGeometry x="540" y="420" width="80" height="40" as="geometry" />
        </mxCell>
        <mxCell id="g0LMdy6BWs_bw-SiAegQ-13" value="" style="endArrow=none;html=1;rounded=0;fontSize=12;startSize=8;endSize=8;curved=1;entryX=0.5;entryY=1;entryDx=0;entryDy=0;" edge="1" parent="1" target="g0LMdy6BWs_bw-SiAegQ-12">
          <mxGeometry width="50" height="50" relative="1" as="geometry">
            <mxPoint x="560" y="500" as="sourcePoint" />
            <mxPoint x="560" y="440" as="targetPoint" />
          </mxGeometry>
        </mxCell>
        <mxCell id="g0LMdy6BWs_bw-SiAegQ-14" value="Teacher" style="rounded=0;whiteSpace=wrap;html=1;" vertex="1" parent="1">
          <mxGeometry x="1140" y="490" width="120" height="60" as="geometry" />
        </mxCell>
        <mxCell id="g0LMdy6BWs_bw-SiAegQ-15" value="&lt;u&gt;TeacherID&lt;/u&gt;" style="ellipse;whiteSpace=wrap;html=1;" vertex="1" parent="1">
          <mxGeometry x="1080" y="420" width="70" height="40" as="geometry" />
        </mxCell>
        <mxCell id="g0LMdy6BWs_bw-SiAegQ-16" value="Name" style="ellipse;whiteSpace=wrap;html=1;" vertex="1" parent="1">
          <mxGeometry x="1165" y="410" width="70" height="40" as="geometry" />
        </mxCell>
        <mxCell id="g0LMdy6BWs_bw-SiAegQ-17" value="" style="endArrow=none;html=1;rounded=0;fontSize=12;startSize=8;endSize=8;curved=1;entryX=0.5;entryY=1;entryDx=0;entryDy=0;exitX=0;exitY=0;exitDx=0;exitDy=0;" edge="1" source="g0LMdy6BWs_bw-SiAegQ-14" target="g0LMdy6BWs_bw-SiAegQ-15" parent="1">
          <mxGeometry width="50" height="50" relative="1" as="geometry">
            <mxPoint x="1100" y="560" as="sourcePoint" />
            <mxPoint x="1150" y="510" as="targetPoint" />
          </mxGeometry>
        </mxCell>
        <mxCell id="g0LMdy6BWs_bw-SiAegQ-18" value="" style="endArrow=none;html=1;rounded=0;fontSize=12;startSize=8;endSize=8;curved=1;entryX=0.5;entryY=1;entryDx=0;entryDy=0;exitX=0.5;exitY=0;exitDx=0;exitDy=0;" edge="1" source="g0LMdy6BWs_bw-SiAegQ-14" target="g0LMdy6BWs_bw-SiAegQ-16" parent="1">
          <mxGeometry width="50" height="50" relative="1" as="geometry">
            <mxPoint x="1160" y="560" as="sourcePoint" />
            <mxPoint x="1210" y="510" as="targetPoint" />
          </mxGeometry>
        </mxCell>
        <mxCell id="g0LMdy6BWs_bw-SiAegQ-19" value="Email" style="ellipse;whiteSpace=wrap;html=1;" vertex="1" parent="1">
          <mxGeometry x="1250" y="410" width="70" height="40" as="geometry" />
        </mxCell>
        <mxCell id="g0LMdy6BWs_bw-SiAegQ-21" value="Password" style="ellipse;whiteSpace=wrap;html=1;" vertex="1" parent="1">
          <mxGeometry x="1300" y="450" width="80" height="40" as="geometry" />
        </mxCell>
        <mxCell id="g0LMdy6BWs_bw-SiAegQ-24" value="" style="endArrow=none;html=1;rounded=0;fontSize=12;startSize=8;endSize=8;curved=1;entryX=0.5;entryY=1;entryDx=0;entryDy=0;" edge="1" target="g0LMdy6BWs_bw-SiAegQ-19" parent="1">
          <mxGeometry width="50" height="50" relative="1" as="geometry">
            <mxPoint x="1260" y="490" as="sourcePoint" />
            <mxPoint x="1280" y="450" as="targetPoint" />
          </mxGeometry>
        </mxCell>
        <mxCell id="g0LMdy6BWs_bw-SiAegQ-25" value="" style="endArrow=none;html=1;rounded=0;fontSize=12;startSize=8;endSize=8;curved=1;entryX=0;entryY=1;entryDx=0;entryDy=0;" edge="1" parent="1" target="g0LMdy6BWs_bw-SiAegQ-21">
          <mxGeometry width="50" height="50" relative="1" as="geometry">
            <mxPoint x="1260" y="510" as="sourcePoint" />
            <mxPoint x="1260" y="470" as="targetPoint" />
          </mxGeometry>
        </mxCell>
        <mxCell id="g0LMdy6BWs_bw-SiAegQ-26" value="&lt;div&gt;FamilyMember&lt;/div&gt;" style="rounded=0;whiteSpace=wrap;html=1;" vertex="1" parent="1">
          <mxGeometry x="1140" y="800" width="120" height="60" as="geometry" />
        </mxCell>
        <mxCell id="g0LMdy6BWs_bw-SiAegQ-27" value="&lt;u&gt;FamilyMemberID&lt;/u&gt;" style="ellipse;whiteSpace=wrap;html=1;" vertex="1" parent="1">
          <mxGeometry x="1270" y="740" width="100" height="40" as="geometry" />
        </mxCell>
        <mxCell id="g0LMdy6BWs_bw-SiAegQ-34" value="" style="endArrow=none;html=1;rounded=0;fontSize=12;startSize=8;endSize=8;curved=1;entryX=0.137;entryY=0.731;entryDx=0;entryDy=0;entryPerimeter=0;exitX=1;exitY=0;exitDx=0;exitDy=0;" edge="1" parent="1" source="g0LMdy6BWs_bw-SiAegQ-26" target="g0LMdy6BWs_bw-SiAegQ-27">
          <mxGeometry width="50" height="50" relative="1" as="geometry">
            <mxPoint x="1250" y="760" as="sourcePoint" />
            <mxPoint x="1300" y="710" as="targetPoint" />
          </mxGeometry>
        </mxCell>
        <mxCell id="g0LMdy6BWs_bw-SiAegQ-35" value="Name" style="ellipse;whiteSpace=wrap;html=1;" vertex="1" parent="1">
          <mxGeometry x="1320" y="790" width="80" height="40" as="geometry" />
        </mxCell>
        <mxCell id="g0LMdy6BWs_bw-SiAegQ-36" value="" style="endArrow=none;html=1;rounded=0;fontSize=12;startSize=8;endSize=8;curved=1;entryX=0;entryY=0.5;entryDx=0;entryDy=0;exitX=1;exitY=0.25;exitDx=0;exitDy=0;" edge="1" parent="1" source="g0LMdy6BWs_bw-SiAegQ-26" target="g0LMdy6BWs_bw-SiAegQ-35">
          <mxGeometry width="50" height="50" relative="1" as="geometry">
            <mxPoint x="1250" y="810" as="sourcePoint" />
            <mxPoint x="1300" y="760" as="targetPoint" />
          </mxGeometry>
        </mxCell>
        <mxCell id="g0LMdy6BWs_bw-SiAegQ-37" value="Has" style="rhombus;whiteSpace=wrap;html=1;" vertex="1" parent="1">
          <mxGeometry x="1170" y="640" width="60" height="60" as="geometry" />
        </mxCell>
        <mxCell id="g0LMdy6BWs_bw-SiAegQ-38" value="" style="endArrow=none;html=1;rounded=0;fontSize=12;startSize=8;endSize=8;curved=1;entryX=0.5;entryY=1;entryDx=0;entryDy=0;exitX=0.5;exitY=0;exitDx=0;exitDy=0;" edge="1" parent="1" source="g0LMdy6BWs_bw-SiAegQ-37" target="g0LMdy6BWs_bw-SiAegQ-14">
          <mxGeometry width="50" height="50" relative="1" as="geometry">
            <mxPoint x="1170" y="690" as="sourcePoint" />
            <mxPoint x="1220" y="640" as="targetPoint" />
          </mxGeometry>
        </mxCell>
        <mxCell id="g0LMdy6BWs_bw-SiAegQ-40" value="1" style="edgeLabel;html=1;align=center;verticalAlign=middle;resizable=0;points=[];fontSize=12;" vertex="1" connectable="0" parent="g0LMdy6BWs_bw-SiAegQ-38">
          <mxGeometry x="0.6519" y="-1" relative="1" as="geometry">
            <mxPoint as="offset" />
          </mxGeometry>
        </mxCell>
        <mxCell id="g0LMdy6BWs_bw-SiAegQ-39" value="" style="endArrow=none;html=1;rounded=0;fontSize=12;startSize=8;endSize=8;curved=1;entryX=0.5;entryY=1;entryDx=0;entryDy=0;exitX=0.5;exitY=0;exitDx=0;exitDy=0;" edge="1" parent="1" source="g0LMdy6BWs_bw-SiAegQ-26" target="g0LMdy6BWs_bw-SiAegQ-37">
          <mxGeometry width="50" height="50" relative="1" as="geometry">
            <mxPoint x="1170" y="690" as="sourcePoint" />
            <mxPoint x="1220" y="640" as="targetPoint" />
          </mxGeometry>
        </mxCell>
        <mxCell id="g0LMdy6BWs_bw-SiAegQ-41" value="M" style="edgeLabel;html=1;align=center;verticalAlign=middle;resizable=0;points=[];fontSize=12;" vertex="1" connectable="0" parent="g0LMdy6BWs_bw-SiAegQ-39">
          <mxGeometry x="-0.5631" y="1" relative="1" as="geometry">
            <mxPoint as="offset" />
          </mxGeometry>
        </mxCell>
        <mxCell id="g0LMdy6BWs_bw-SiAegQ-42" value="Task" style="rounded=0;whiteSpace=wrap;html=1;" vertex="1" parent="1">
          <mxGeometry x="430" y="790" width="120" height="60" as="geometry" />
        </mxCell>
        <mxCell id="g0LMdy6BWs_bw-SiAegQ-43" value="&lt;u&gt;TaskID&lt;/u&gt;" style="ellipse;whiteSpace=wrap;html=1;" vertex="1" parent="1">
          <mxGeometry x="370" y="720" width="70" height="40" as="geometry" />
        </mxCell>
        <mxCell id="g0LMdy6BWs_bw-SiAegQ-45" value="" style="endArrow=none;html=1;rounded=0;fontSize=12;startSize=8;endSize=8;curved=1;entryX=0.5;entryY=1;entryDx=0;entryDy=0;exitX=0;exitY=0;exitDx=0;exitDy=0;" edge="1" source="g0LMdy6BWs_bw-SiAegQ-42" target="g0LMdy6BWs_bw-SiAegQ-43" parent="1">
          <mxGeometry width="50" height="50" relative="1" as="geometry">
            <mxPoint x="390" y="860" as="sourcePoint" />
            <mxPoint x="440" y="810" as="targetPoint" />
          </mxGeometry>
        </mxCell>
        <mxCell id="g0LMdy6BWs_bw-SiAegQ-53" value="Description" style="ellipse;whiteSpace=wrap;html=1;" vertex="1" parent="1">
          <mxGeometry x="310" y="770" width="80" height="40" as="geometry" />
        </mxCell>
        <mxCell id="g0LMdy6BWs_bw-SiAegQ-54" value="" style="endArrow=none;html=1;rounded=0;fontSize=12;startSize=8;endSize=8;curved=1;exitX=1;exitY=0.5;exitDx=0;exitDy=0;entryX=0;entryY=0.25;entryDx=0;entryDy=0;" edge="1" parent="1" source="g0LMdy6BWs_bw-SiAegQ-53" target="g0LMdy6BWs_bw-SiAegQ-42">
          <mxGeometry width="50" height="50" relative="1" as="geometry">
            <mxPoint x="370" y="830" as="sourcePoint" />
            <mxPoint x="420" y="780" as="targetPoint" />
          </mxGeometry>
        </mxCell>
        <mxCell id="g0LMdy6BWs_bw-SiAegQ-55" value="Status" style="ellipse;whiteSpace=wrap;html=1;" vertex="1" parent="1">
          <mxGeometry x="310" y="830" width="80" height="40" as="geometry" />
        </mxCell>
        <mxCell id="g0LMdy6BWs_bw-SiAegQ-56" value="" style="endArrow=none;html=1;rounded=0;fontSize=12;startSize=8;endSize=8;curved=1;entryX=0;entryY=0.5;entryDx=0;entryDy=0;exitX=1;exitY=0.5;exitDx=0;exitDy=0;" edge="1" parent="1" source="g0LMdy6BWs_bw-SiAegQ-55" target="g0LMdy6BWs_bw-SiAegQ-42">
          <mxGeometry width="50" height="50" relative="1" as="geometry">
            <mxPoint x="370" y="830" as="sourcePoint" />
            <mxPoint x="420" y="780" as="targetPoint" />
          </mxGeometry>
        </mxCell>
        <mxCell id="g0LMdy6BWs_bw-SiAegQ-57" value="Deadline" style="ellipse;whiteSpace=wrap;html=1;" vertex="1" parent="1">
          <mxGeometry x="350" y="890" width="80" height="40" as="geometry" />
        </mxCell>
        <mxCell id="g0LMdy6BWs_bw-SiAegQ-58" value="" style="endArrow=none;html=1;rounded=0;fontSize=12;startSize=8;endSize=8;curved=1;entryX=0.5;entryY=0;entryDx=0;entryDy=0;exitX=0;exitY=1;exitDx=0;exitDy=0;" edge="1" parent="1" source="g0LMdy6BWs_bw-SiAegQ-42" target="g0LMdy6BWs_bw-SiAegQ-57">
          <mxGeometry width="50" height="50" relative="1" as="geometry">
            <mxPoint x="450" y="830" as="sourcePoint" />
            <mxPoint x="500" y="780" as="targetPoint" />
          </mxGeometry>
        </mxCell>
        <mxCell id="g0LMdy6BWs_bw-SiAegQ-59" value="StudentID" style="ellipse;whiteSpace=wrap;html=1;" vertex="1" parent="1">
          <mxGeometry x="560" y="720" width="80" height="40" as="geometry" />
        </mxCell>
        <mxCell id="g0LMdy6BWs_bw-SiAegQ-60" value="" style="endArrow=none;html=1;rounded=0;fontSize=12;startSize=8;endSize=8;curved=1;entryX=0;entryY=1;entryDx=0;entryDy=0;exitX=1;exitY=0;exitDx=0;exitDy=0;" edge="1" parent="1" source="g0LMdy6BWs_bw-SiAegQ-42" target="g0LMdy6BWs_bw-SiAegQ-59">
          <mxGeometry width="50" height="50" relative="1" as="geometry">
            <mxPoint x="520" y="770" as="sourcePoint" />
            <mxPoint x="570" y="720" as="targetPoint" />
          </mxGeometry>
        </mxCell>
        <mxCell id="g0LMdy6BWs_bw-SiAegQ-62" value="" style="endArrow=none;dashed=1;html=1;rounded=0;fontSize=12;startSize=8;endSize=8;curved=1;" edge="1" parent="1">
          <mxGeometry width="50" height="50" relative="1" as="geometry">
            <mxPoint x="570" y="750" as="sourcePoint" />
            <mxPoint x="630" y="750" as="targetPoint" />
          </mxGeometry>
        </mxCell>
        <mxCell id="g0LMdy6BWs_bw-SiAegQ-63" value="Performance" style="rounded=0;whiteSpace=wrap;html=1;" vertex="1" parent="1">
          <mxGeometry x="1135" y="1040" width="120" height="60" as="geometry" />
        </mxCell>
        <mxCell id="g0LMdy6BWs_bw-SiAegQ-64" value="&lt;u&gt;PerformanceID&lt;/u&gt;" style="ellipse;whiteSpace=wrap;html=1;" vertex="1" parent="1">
          <mxGeometry x="1075" y="970" width="85" height="40" as="geometry" />
        </mxCell>
        <mxCell id="g0LMdy6BWs_bw-SiAegQ-65" value="" style="endArrow=none;html=1;rounded=0;fontSize=12;startSize=8;endSize=8;curved=1;entryX=0.5;entryY=1;entryDx=0;entryDy=0;exitX=0;exitY=0;exitDx=0;exitDy=0;" edge="1" source="g0LMdy6BWs_bw-SiAegQ-63" target="g0LMdy6BWs_bw-SiAegQ-64" parent="1">
          <mxGeometry width="50" height="50" relative="1" as="geometry">
            <mxPoint x="1095" y="1110" as="sourcePoint" />
            <mxPoint x="1145" y="1060" as="targetPoint" />
          </mxGeometry>
        </mxCell>
        <mxCell id="g0LMdy6BWs_bw-SiAegQ-70" value="StudentID" style="ellipse;whiteSpace=wrap;html=1;" vertex="1" parent="1">
          <mxGeometry x="1265" y="970" width="80" height="40" as="geometry" />
        </mxCell>
        <mxCell id="g0LMdy6BWs_bw-SiAegQ-71" value="" style="endArrow=none;html=1;rounded=0;fontSize=12;startSize=8;endSize=8;curved=1;entryX=0;entryY=1;entryDx=0;entryDy=0;exitX=1;exitY=0;exitDx=0;exitDy=0;" edge="1" source="g0LMdy6BWs_bw-SiAegQ-63" target="g0LMdy6BWs_bw-SiAegQ-70" parent="1">
          <mxGeometry width="50" height="50" relative="1" as="geometry">
            <mxPoint x="1225" y="1020" as="sourcePoint" />
            <mxPoint x="1275" y="970" as="targetPoint" />
          </mxGeometry>
        </mxCell>
        <mxCell id="g0LMdy6BWs_bw-SiAegQ-72" value="" style="endArrow=none;dashed=1;html=1;rounded=0;fontSize=12;startSize=8;endSize=8;curved=1;" edge="1" parent="1">
          <mxGeometry width="50" height="50" relative="1" as="geometry">
            <mxPoint x="1275" y="1000" as="sourcePoint" />
            <mxPoint x="1335" y="1000" as="targetPoint" />
          </mxGeometry>
        </mxCell>
        <mxCell id="g0LMdy6BWs_bw-SiAegQ-74" value="Type" style="ellipse;whiteSpace=wrap;html=1;" vertex="1" parent="1">
          <mxGeometry x="1305" y="1020" width="70" height="40" as="geometry" />
        </mxCell>
        <mxCell id="g0LMdy6BWs_bw-SiAegQ-75" value="" style="endArrow=none;html=1;rounded=0;fontSize=12;startSize=8;endSize=8;curved=1;exitX=1;exitY=0.25;exitDx=0;exitDy=0;entryX=0;entryY=0.5;entryDx=0;entryDy=0;" edge="1" parent="1" source="g0LMdy6BWs_bw-SiAegQ-63" target="g0LMdy6BWs_bw-SiAegQ-74">
          <mxGeometry width="50" height="50" relative="1" as="geometry">
            <mxPoint x="1270" y="1050" as="sourcePoint" />
            <mxPoint x="1320" y="1000" as="targetPoint" />
          </mxGeometry>
        </mxCell>
        <mxCell id="g0LMdy6BWs_bw-SiAegQ-76" value="Duration" style="ellipse;whiteSpace=wrap;html=1;" vertex="1" parent="1">
          <mxGeometry x="1310" y="1070" width="70" height="40" as="geometry" />
        </mxCell>
        <mxCell id="g0LMdy6BWs_bw-SiAegQ-77" value="" style="endArrow=none;html=1;rounded=0;fontSize=12;startSize=8;endSize=8;curved=1;exitX=1;exitY=0.5;exitDx=0;exitDy=0;entryX=0;entryY=0.5;entryDx=0;entryDy=0;" edge="1" parent="1" source="g0LMdy6BWs_bw-SiAegQ-63" target="g0LMdy6BWs_bw-SiAegQ-76">
          <mxGeometry width="50" height="50" relative="1" as="geometry">
            <mxPoint x="1270" y="1050" as="sourcePoint" />
            <mxPoint x="1320" y="1000" as="targetPoint" />
          </mxGeometry>
        </mxCell>
        <mxCell id="g0LMdy6BWs_bw-SiAegQ-78" value="&lt;div&gt;SpecialRequirements&lt;/div&gt;" style="ellipse;whiteSpace=wrap;html=1;" vertex="1" parent="1">
          <mxGeometry x="1275" y="1130" width="125" height="40" as="geometry" />
        </mxCell>
        <mxCell id="g0LMdy6BWs_bw-SiAegQ-79" value="" style="endArrow=none;html=1;rounded=0;fontSize=12;startSize=8;endSize=8;curved=1;exitX=1;exitY=1;exitDx=0;exitDy=0;entryX=0;entryY=0;entryDx=0;entryDy=0;" edge="1" parent="1" source="g0LMdy6BWs_bw-SiAegQ-63" target="g0LMdy6BWs_bw-SiAegQ-78">
          <mxGeometry width="50" height="50" relative="1" as="geometry">
            <mxPoint x="1270" y="1060" as="sourcePoint" />
            <mxPoint x="1320" y="1010" as="targetPoint" />
          </mxGeometry>
        </mxCell>
        <mxCell id="g0LMdy6BWs_bw-SiAegQ-80" value="Menu Item" style="rounded=0;whiteSpace=wrap;html=1;" vertex="1" parent="1">
          <mxGeometry x="440" y="1035" width="120" height="60" as="geometry" />
        </mxCell>
        <mxCell id="g0LMdy6BWs_bw-SiAegQ-84" value="" style="endArrow=none;html=1;rounded=0;fontSize=12;startSize=8;endSize=8;curved=1;exitX=1;exitY=1;exitDx=0;exitDy=0;entryX=0;entryY=0.25;entryDx=0;entryDy=0;" edge="1" source="g0LMdy6BWs_bw-SiAegQ-92" target="g0LMdy6BWs_bw-SiAegQ-80" parent="1">
          <mxGeometry width="50" height="50" relative="1" as="geometry">
            <mxPoint x="400" y="1035" as="sourcePoint" />
            <mxPoint x="430" y="1025" as="targetPoint" />
          </mxGeometry>
        </mxCell>
        <mxCell id="g0LMdy6BWs_bw-SiAegQ-86" value="" style="endArrow=none;html=1;rounded=0;fontSize=12;startSize=8;endSize=8;curved=1;entryX=0;entryY=0.5;entryDx=0;entryDy=0;exitX=1;exitY=0.5;exitDx=0;exitDy=0;" edge="1" source="g0LMdy6BWs_bw-SiAegQ-93" target="g0LMdy6BWs_bw-SiAegQ-80" parent="1">
          <mxGeometry width="50" height="50" relative="1" as="geometry">
            <mxPoint x="399.9999999999977" y="1080" as="sourcePoint" />
            <mxPoint x="430" y="1025" as="targetPoint" />
          </mxGeometry>
        </mxCell>
        <mxCell id="g0LMdy6BWs_bw-SiAegQ-87" value="ItemName" style="ellipse;whiteSpace=wrap;html=1;" vertex="1" parent="1">
          <mxGeometry x="350" y="1110" width="80" height="40" as="geometry" />
        </mxCell>
        <mxCell id="g0LMdy6BWs_bw-SiAegQ-88" value="" style="endArrow=none;html=1;rounded=0;fontSize=12;startSize=8;endSize=8;curved=1;entryX=0.5;entryY=0;entryDx=0;entryDy=0;exitX=0;exitY=1;exitDx=0;exitDy=0;" edge="1" source="g0LMdy6BWs_bw-SiAegQ-80" target="g0LMdy6BWs_bw-SiAegQ-87" parent="1">
          <mxGeometry width="50" height="50" relative="1" as="geometry">
            <mxPoint x="460" y="1075" as="sourcePoint" />
            <mxPoint x="510" y="1025" as="targetPoint" />
          </mxGeometry>
        </mxCell>
        <mxCell id="g0LMdy6BWs_bw-SiAegQ-92" value="&lt;u&gt;MenuItemID&lt;/u&gt;" style="ellipse;whiteSpace=wrap;html=1;" vertex="1" parent="1">
          <mxGeometry x="330" y="1010" width="80" height="40" as="geometry" />
        </mxCell>
        <mxCell id="g0LMdy6BWs_bw-SiAegQ-93" value="Votes" style="ellipse;whiteSpace=wrap;html=1;" vertex="1" parent="1">
          <mxGeometry x="340" y="1065" width="60" height="30" as="geometry" />
        </mxCell>
        <mxCell id="g0LMdy6BWs_bw-SiAegQ-94" value="Attendance" style="rounded=0;whiteSpace=wrap;html=1;" vertex="1" parent="1">
          <mxGeometry x="1140" y="1310" width="120" height="60" as="geometry" />
        </mxCell>
        <mxCell id="g0LMdy6BWs_bw-SiAegQ-95" value="&lt;u&gt;AttendanceID&lt;/u&gt;" style="ellipse;whiteSpace=wrap;html=1;" vertex="1" parent="1">
          <mxGeometry x="1080" y="1240" width="85" height="40" as="geometry" />
        </mxCell>
        <mxCell id="g0LMdy6BWs_bw-SiAegQ-96" value="" style="endArrow=none;html=1;rounded=0;fontSize=12;startSize=8;endSize=8;curved=1;entryX=0.5;entryY=1;entryDx=0;entryDy=0;exitX=0;exitY=0;exitDx=0;exitDy=0;" edge="1" source="g0LMdy6BWs_bw-SiAegQ-94" target="g0LMdy6BWs_bw-SiAegQ-95" parent="1">
          <mxGeometry width="50" height="50" relative="1" as="geometry">
            <mxPoint x="1100" y="1380" as="sourcePoint" />
            <mxPoint x="1150" y="1330" as="targetPoint" />
          </mxGeometry>
        </mxCell>
        <mxCell id="g0LMdy6BWs_bw-SiAegQ-97" value="StudentID" style="ellipse;whiteSpace=wrap;html=1;" vertex="1" parent="1">
          <mxGeometry x="1270" y="1240" width="80" height="40" as="geometry" />
        </mxCell>
        <mxCell id="g0LMdy6BWs_bw-SiAegQ-98" value="" style="endArrow=none;html=1;rounded=0;fontSize=12;startSize=8;endSize=8;curved=1;entryX=0;entryY=1;entryDx=0;entryDy=0;exitX=1;exitY=0;exitDx=0;exitDy=0;" edge="1" source="g0LMdy6BWs_bw-SiAegQ-94" target="g0LMdy6BWs_bw-SiAegQ-97" parent="1">
          <mxGeometry width="50" height="50" relative="1" as="geometry">
            <mxPoint x="1230" y="1290" as="sourcePoint" />
            <mxPoint x="1280" y="1240" as="targetPoint" />
          </mxGeometry>
        </mxCell>
        <mxCell id="g0LMdy6BWs_bw-SiAegQ-99" value="" style="endArrow=none;dashed=1;html=1;rounded=0;fontSize=12;startSize=8;endSize=8;curved=1;" edge="1" parent="1">
          <mxGeometry width="50" height="50" relative="1" as="geometry">
            <mxPoint x="1280" y="1270" as="sourcePoint" />
            <mxPoint x="1340" y="1270" as="targetPoint" />
          </mxGeometry>
        </mxCell>
        <mxCell id="g0LMdy6BWs_bw-SiAegQ-106" value="TeacherID" style="ellipse;whiteSpace=wrap;html=1;" vertex="1" parent="1">
          <mxGeometry x="1320" y="1285" width="80" height="40" as="geometry" />
        </mxCell>
        <mxCell id="g0LMdy6BWs_bw-SiAegQ-107" value="" style="endArrow=none;dashed=1;html=1;rounded=0;fontSize=12;startSize=8;endSize=8;curved=1;" edge="1" parent="1">
          <mxGeometry width="50" height="50" relative="1" as="geometry">
            <mxPoint x="1330" y="1315" as="sourcePoint" />
            <mxPoint x="1390" y="1315" as="targetPoint" />
          </mxGeometry>
        </mxCell>
        <mxCell id="g0LMdy6BWs_bw-SiAegQ-109" value="FamilyMemberID" style="ellipse;whiteSpace=wrap;html=1;" vertex="1" parent="1">
          <mxGeometry x="1310" y="1330" width="100" height="40" as="geometry" />
        </mxCell>
        <mxCell id="g0LMdy6BWs_bw-SiAegQ-110" value="" style="endArrow=none;dashed=1;html=1;rounded=0;fontSize=12;startSize=8;endSize=8;curved=1;entryX=0.913;entryY=0.73;entryDx=0;entryDy=0;entryPerimeter=0;" edge="1" parent="1" target="g0LMdy6BWs_bw-SiAegQ-109">
          <mxGeometry width="50" height="50" relative="1" as="geometry">
            <mxPoint x="1320" y="1360" as="sourcePoint" />
            <mxPoint x="1380" y="1360" as="targetPoint" />
          </mxGeometry>
        </mxCell>
        <mxCell id="g0LMdy6BWs_bw-SiAegQ-111" value="" style="endArrow=none;html=1;rounded=0;fontSize=12;startSize=8;endSize=8;curved=1;entryX=0;entryY=0.5;entryDx=0;entryDy=0;exitX=1;exitY=0.25;exitDx=0;exitDy=0;" edge="1" parent="1" source="g0LMdy6BWs_bw-SiAegQ-94" target="g0LMdy6BWs_bw-SiAegQ-106">
          <mxGeometry width="50" height="50" relative="1" as="geometry">
            <mxPoint x="1260" y="1270" as="sourcePoint" />
            <mxPoint x="1310" y="1220" as="targetPoint" />
          </mxGeometry>
        </mxCell>
        <mxCell id="g0LMdy6BWs_bw-SiAegQ-112" value="" style="endArrow=none;html=1;rounded=0;fontSize=12;startSize=8;endSize=8;curved=1;entryX=0;entryY=0.5;entryDx=0;entryDy=0;exitX=1;exitY=0.75;exitDx=0;exitDy=0;" edge="1" parent="1" source="g0LMdy6BWs_bw-SiAegQ-94" target="g0LMdy6BWs_bw-SiAegQ-109">
          <mxGeometry width="50" height="50" relative="1" as="geometry">
            <mxPoint x="1260" y="1270" as="sourcePoint" />
            <mxPoint x="1310" y="1220" as="targetPoint" />
          </mxGeometry>
        </mxCell>
        <mxCell id="g0LMdy6BWs_bw-SiAegQ-113" value="Budget" style="rounded=0;whiteSpace=wrap;html=1;" vertex="1" parent="1">
          <mxGeometry x="420" y="1295" width="120" height="60" as="geometry" />
        </mxCell>
        <mxCell id="g0LMdy6BWs_bw-SiAegQ-114" value="" style="endArrow=none;html=1;rounded=0;fontSize=12;startSize=8;endSize=8;curved=1;exitX=1;exitY=1;exitDx=0;exitDy=0;entryX=0;entryY=0.25;entryDx=0;entryDy=0;" edge="1" source="g0LMdy6BWs_bw-SiAegQ-118" target="g0LMdy6BWs_bw-SiAegQ-113" parent="1">
          <mxGeometry width="50" height="50" relative="1" as="geometry">
            <mxPoint x="380" y="1295" as="sourcePoint" />
            <mxPoint x="410" y="1285" as="targetPoint" />
          </mxGeometry>
        </mxCell>
        <mxCell id="g0LMdy6BWs_bw-SiAegQ-115" value="" style="endArrow=none;html=1;rounded=0;fontSize=12;startSize=8;endSize=8;curved=1;entryX=0;entryY=0.5;entryDx=0;entryDy=0;exitX=1;exitY=0.5;exitDx=0;exitDy=0;" edge="1" source="g0LMdy6BWs_bw-SiAegQ-119" target="g0LMdy6BWs_bw-SiAegQ-113" parent="1">
          <mxGeometry width="50" height="50" relative="1" as="geometry">
            <mxPoint x="379.9999999999977" y="1340" as="sourcePoint" />
            <mxPoint x="410" y="1285" as="targetPoint" />
          </mxGeometry>
        </mxCell>
        <mxCell id="g0LMdy6BWs_bw-SiAegQ-116" value="Expense" style="ellipse;whiteSpace=wrap;html=1;" vertex="1" parent="1">
          <mxGeometry x="330" y="1370" width="80" height="40" as="geometry" />
        </mxCell>
        <mxCell id="g0LMdy6BWs_bw-SiAegQ-117" value="" style="endArrow=none;html=1;rounded=0;fontSize=12;startSize=8;endSize=8;curved=1;entryX=0.5;entryY=0;entryDx=0;entryDy=0;exitX=0;exitY=1;exitDx=0;exitDy=0;" edge="1" source="g0LMdy6BWs_bw-SiAegQ-113" target="g0LMdy6BWs_bw-SiAegQ-116" parent="1">
          <mxGeometry width="50" height="50" relative="1" as="geometry">
            <mxPoint x="440" y="1335" as="sourcePoint" />
            <mxPoint x="490" y="1285" as="targetPoint" />
          </mxGeometry>
        </mxCell>
        <mxCell id="g0LMdy6BWs_bw-SiAegQ-118" value="&lt;u&gt;BudgetID&lt;/u&gt;" style="ellipse;whiteSpace=wrap;html=1;" vertex="1" parent="1">
          <mxGeometry x="310" y="1270" width="80" height="40" as="geometry" />
        </mxCell>
        <mxCell id="g0LMdy6BWs_bw-SiAegQ-119" value="Item" style="ellipse;whiteSpace=wrap;html=1;" vertex="1" parent="1">
          <mxGeometry x="320" y="1325" width="60" height="30" as="geometry" />
        </mxCell>
        <mxCell id="g0LMdy6BWs_bw-SiAegQ-120" value="Category" style="ellipse;whiteSpace=wrap;html=1;" vertex="1" parent="1">
          <mxGeometry x="550" y="1230" width="70" height="30" as="geometry" />
        </mxCell>
        <mxCell id="g0LMdy6BWs_bw-SiAegQ-121" value="" style="endArrow=none;html=1;rounded=0;fontSize=12;startSize=8;endSize=8;curved=1;entryX=0;entryY=1;entryDx=0;entryDy=0;exitX=1;exitY=0;exitDx=0;exitDy=0;" edge="1" parent="1" source="g0LMdy6BWs_bw-SiAegQ-113" target="g0LMdy6BWs_bw-SiAegQ-120">
          <mxGeometry width="50" height="50" relative="1" as="geometry">
            <mxPoint x="550" y="1240" as="sourcePoint" />
            <mxPoint x="600" y="1190" as="targetPoint" />
          </mxGeometry>
        </mxCell>
        <mxCell id="g0LMdy6BWs_bw-SiAegQ-131" value="Venue" style="rounded=0;whiteSpace=wrap;html=1;" vertex="1" parent="1">
          <mxGeometry x="420" y="1535" width="120" height="60" as="geometry" />
        </mxCell>
        <mxCell id="g0LMdy6BWs_bw-SiAegQ-132" value="" style="endArrow=none;html=1;rounded=0;fontSize=12;startSize=8;endSize=8;curved=1;exitX=1;exitY=1;exitDx=0;exitDy=0;entryX=0;entryY=0.25;entryDx=0;entryDy=0;" edge="1" source="g0LMdy6BWs_bw-SiAegQ-136" target="g0LMdy6BWs_bw-SiAegQ-131" parent="1">
          <mxGeometry width="50" height="50" relative="1" as="geometry">
            <mxPoint x="380" y="1535" as="sourcePoint" />
            <mxPoint x="410" y="1525" as="targetPoint" />
          </mxGeometry>
        </mxCell>
        <mxCell id="g0LMdy6BWs_bw-SiAegQ-133" value="" style="endArrow=none;html=1;rounded=0;fontSize=12;startSize=8;endSize=8;curved=1;entryX=0;entryY=0.5;entryDx=0;entryDy=0;exitX=1;exitY=0.5;exitDx=0;exitDy=0;" edge="1" source="g0LMdy6BWs_bw-SiAegQ-137" target="g0LMdy6BWs_bw-SiAegQ-131" parent="1">
          <mxGeometry width="50" height="50" relative="1" as="geometry">
            <mxPoint x="379.9999999999977" y="1580" as="sourcePoint" />
            <mxPoint x="410" y="1525" as="targetPoint" />
          </mxGeometry>
        </mxCell>
        <mxCell id="g0LMdy6BWs_bw-SiAegQ-134" value="Location" style="ellipse;whiteSpace=wrap;html=1;" vertex="1" parent="1">
          <mxGeometry x="330" y="1610" width="80" height="40" as="geometry" />
        </mxCell>
        <mxCell id="g0LMdy6BWs_bw-SiAegQ-135" value="" style="endArrow=none;html=1;rounded=0;fontSize=12;startSize=8;endSize=8;curved=1;entryX=0.5;entryY=0;entryDx=0;entryDy=0;exitX=0;exitY=1;exitDx=0;exitDy=0;" edge="1" source="g0LMdy6BWs_bw-SiAegQ-131" target="g0LMdy6BWs_bw-SiAegQ-134" parent="1">
          <mxGeometry width="50" height="50" relative="1" as="geometry">
            <mxPoint x="440" y="1575" as="sourcePoint" />
            <mxPoint x="490" y="1525" as="targetPoint" />
          </mxGeometry>
        </mxCell>
        <mxCell id="g0LMdy6BWs_bw-SiAegQ-136" value="&lt;u&gt;VenueID&lt;/u&gt;" style="ellipse;whiteSpace=wrap;html=1;" vertex="1" parent="1">
          <mxGeometry x="310" y="1510" width="80" height="40" as="geometry" />
        </mxCell>
        <mxCell id="g0LMdy6BWs_bw-SiAegQ-137" value="Name" style="ellipse;whiteSpace=wrap;html=1;" vertex="1" parent="1">
          <mxGeometry x="320" y="1565" width="60" height="30" as="geometry" />
        </mxCell>
        <mxCell id="g0LMdy6BWs_bw-SiAegQ-138" value="Capacity" style="ellipse;whiteSpace=wrap;html=1;" vertex="1" parent="1">
          <mxGeometry x="550" y="1490" width="70" height="30" as="geometry" />
        </mxCell>
        <mxCell id="g0LMdy6BWs_bw-SiAegQ-139" value="" style="endArrow=none;html=1;rounded=0;fontSize=12;startSize=8;endSize=8;curved=1;entryX=0;entryY=1;entryDx=0;entryDy=0;exitX=1;exitY=0;exitDx=0;exitDy=0;" edge="1" source="g0LMdy6BWs_bw-SiAegQ-131" target="g0LMdy6BWs_bw-SiAegQ-138" parent="1">
          <mxGeometry width="50" height="50" relative="1" as="geometry">
            <mxPoint x="550" y="1480" as="sourcePoint" />
            <mxPoint x="600" y="1430" as="targetPoint" />
          </mxGeometry>
        </mxCell>
        <mxCell id="g0LMdy6BWs_bw-SiAegQ-140" value="Decorations" style="rounded=0;whiteSpace=wrap;html=1;" vertex="1" parent="1">
          <mxGeometry x="1150" y="1530" width="120" height="60" as="geometry" />
        </mxCell>
        <mxCell id="g0LMdy6BWs_bw-SiAegQ-141" value="" style="endArrow=none;html=1;rounded=0;fontSize=12;startSize=8;endSize=8;curved=1;exitX=1;exitY=1;exitDx=0;exitDy=0;entryX=0;entryY=0.25;entryDx=0;entryDy=0;" edge="1" source="g0LMdy6BWs_bw-SiAegQ-145" target="g0LMdy6BWs_bw-SiAegQ-140" parent="1">
          <mxGeometry width="50" height="50" relative="1" as="geometry">
            <mxPoint x="1110" y="1530" as="sourcePoint" />
            <mxPoint x="1140" y="1520" as="targetPoint" />
          </mxGeometry>
        </mxCell>
        <mxCell id="g0LMdy6BWs_bw-SiAegQ-143" value="Cost" style="ellipse;whiteSpace=wrap;html=1;" vertex="1" parent="1">
          <mxGeometry x="1320" y="1525" width="80" height="40" as="geometry" />
        </mxCell>
        <mxCell id="g0LMdy6BWs_bw-SiAegQ-145" value="&lt;u&gt;DecorationID&amp;nbsp;&lt;/u&gt;" style="ellipse;whiteSpace=wrap;html=1;" vertex="1" parent="1">
          <mxGeometry x="1050" y="1482.5" width="90" height="45" as="geometry" />
        </mxCell>
        <mxCell id="g0LMdy6BWs_bw-SiAegQ-146" value="Name" style="ellipse;whiteSpace=wrap;html=1;" vertex="1" parent="1">
          <mxGeometry x="1330" y="1580" width="60" height="30" as="geometry" />
        </mxCell>
        <mxCell id="g0LMdy6BWs_bw-SiAegQ-147" value="Description" style="ellipse;whiteSpace=wrap;html=1;" vertex="1" parent="1">
          <mxGeometry x="1280" y="1485" width="70" height="30" as="geometry" />
        </mxCell>
        <mxCell id="g0LMdy6BWs_bw-SiAegQ-148" value="" style="endArrow=none;html=1;rounded=0;fontSize=12;startSize=8;endSize=8;curved=1;entryX=0;entryY=1;entryDx=0;entryDy=0;exitX=1;exitY=0;exitDx=0;exitDy=0;" edge="1" source="g0LMdy6BWs_bw-SiAegQ-140" target="g0LMdy6BWs_bw-SiAegQ-147" parent="1">
          <mxGeometry width="50" height="50" relative="1" as="geometry">
            <mxPoint x="1280" y="1475" as="sourcePoint" />
            <mxPoint x="1330" y="1425" as="targetPoint" />
          </mxGeometry>
        </mxCell>
        <mxCell id="g0LMdy6BWs_bw-SiAegQ-149" value="" style="endArrow=none;html=1;rounded=0;fontSize=12;startSize=8;endSize=8;curved=1;entryX=1;entryY=0.25;entryDx=0;entryDy=0;exitX=0;exitY=0.5;exitDx=0;exitDy=0;" edge="1" parent="1" source="g0LMdy6BWs_bw-SiAegQ-143" target="g0LMdy6BWs_bw-SiAegQ-140">
          <mxGeometry width="50" height="50" relative="1" as="geometry">
            <mxPoint x="1320" y="1600" as="sourcePoint" />
            <mxPoint x="1370" y="1550" as="targetPoint" />
          </mxGeometry>
        </mxCell>
        <mxCell id="g0LMdy6BWs_bw-SiAegQ-150" value="" style="endArrow=none;html=1;rounded=0;fontSize=12;startSize=8;endSize=8;curved=1;exitX=1;exitY=0.75;exitDx=0;exitDy=0;entryX=0;entryY=0;entryDx=0;entryDy=0;" edge="1" parent="1" source="g0LMdy6BWs_bw-SiAegQ-140" target="g0LMdy6BWs_bw-SiAegQ-146">
          <mxGeometry width="50" height="50" relative="1" as="geometry">
            <mxPoint x="1320" y="1600" as="sourcePoint" />
            <mxPoint x="1370" y="1550" as="targetPoint" />
          </mxGeometry>
        </mxCell>
        <mxCell id="g0LMdy6BWs_bw-SiAegQ-151" value="propose&amp;nbsp;" style="rhombus;whiteSpace=wrap;html=1;" vertex="1" parent="1">
          <mxGeometry x="800" y="790" width="80" height="80" as="geometry" />
        </mxCell>
        <mxCell id="g0LMdy6BWs_bw-SiAegQ-152" value="" style="endArrow=none;html=1;rounded=0;fontSize=12;startSize=8;endSize=8;curved=1;entryX=1;entryY=0.5;entryDx=0;entryDy=0;exitX=0.5;exitY=0;exitDx=0;exitDy=0;" edge="1" parent="1" source="g0LMdy6BWs_bw-SiAegQ-151" target="g0LMdy6BWs_bw-SiAegQ-1">
          <mxGeometry width="50" height="50" relative="1" as="geometry">
            <mxPoint x="810" y="740" as="sourcePoint" />
            <mxPoint x="860" y="690" as="targetPoint" />
            <Array as="points">
              <mxPoint x="890" y="550" />
            </Array>
          </mxGeometry>
        </mxCell>
        <mxCell id="g0LMdy6BWs_bw-SiAegQ-153" value="1" style="edgeLabel;html=1;align=center;verticalAlign=middle;resizable=0;points=[];fontSize=12;" vertex="1" connectable="0" parent="g0LMdy6BWs_bw-SiAegQ-152">
          <mxGeometry x="0.8673" y="2" relative="1" as="geometry">
            <mxPoint as="offset" />
          </mxGeometry>
        </mxCell>
        <mxCell id="g0LMdy6BWs_bw-SiAegQ-154" value="" style="endArrow=none;html=1;rounded=0;fontSize=12;startSize=8;endSize=8;curved=1;entryX=0.5;entryY=1;entryDx=0;entryDy=0;exitX=0;exitY=0.5;exitDx=0;exitDy=0;" edge="1" parent="1" source="g0LMdy6BWs_bw-SiAegQ-63" target="g0LMdy6BWs_bw-SiAegQ-151">
          <mxGeometry width="50" height="50" relative="1" as="geometry">
            <mxPoint x="900" y="880" as="sourcePoint" />
            <mxPoint x="950" y="830" as="targetPoint" />
            <Array as="points">
              <mxPoint x="910" y="1060" />
            </Array>
          </mxGeometry>
        </mxCell>
        <mxCell id="g0LMdy6BWs_bw-SiAegQ-155" value="M" style="edgeLabel;html=1;align=center;verticalAlign=middle;resizable=0;points=[];fontSize=12;" vertex="1" connectable="0" parent="g0LMdy6BWs_bw-SiAegQ-154">
          <mxGeometry x="-0.8537" y="2" relative="1" as="geometry">
            <mxPoint x="-1" as="offset" />
          </mxGeometry>
        </mxCell>
        <mxCell id="g0LMdy6BWs_bw-SiAegQ-156" value="assigned" style="rhombus;whiteSpace=wrap;html=1;" vertex="1" parent="1">
          <mxGeometry x="460" y="620" width="80" height="80" as="geometry" />
        </mxCell>
        <mxCell id="g0LMdy6BWs_bw-SiAegQ-157" value="" style="endArrow=none;html=1;rounded=0;fontSize=12;startSize=8;endSize=8;curved=1;entryX=0.5;entryY=1;entryDx=0;entryDy=0;exitX=0.5;exitY=0;exitDx=0;exitDy=0;" edge="1" parent="1" source="g0LMdy6BWs_bw-SiAegQ-156" target="g0LMdy6BWs_bw-SiAegQ-1">
          <mxGeometry width="50" height="50" relative="1" as="geometry">
            <mxPoint x="510" y="660" as="sourcePoint" />
            <mxPoint x="560" y="610" as="targetPoint" />
          </mxGeometry>
        </mxCell>
        <mxCell id="g0LMdy6BWs_bw-SiAegQ-158" value="1" style="edgeLabel;html=1;align=center;verticalAlign=middle;resizable=0;points=[];fontSize=12;" vertex="1" connectable="0" parent="g0LMdy6BWs_bw-SiAegQ-157">
          <mxGeometry x="0.6" relative="1" as="geometry">
            <mxPoint as="offset" />
          </mxGeometry>
        </mxCell>
        <mxCell id="g0LMdy6BWs_bw-SiAegQ-159" value="" style="endArrow=none;html=1;rounded=0;fontSize=12;startSize=8;endSize=8;curved=1;exitX=0.5;exitY=1;exitDx=0;exitDy=0;" edge="1" parent="1" source="g0LMdy6BWs_bw-SiAegQ-156">
          <mxGeometry width="50" height="50" relative="1" as="geometry">
            <mxPoint x="510" y="660" as="sourcePoint" />
            <mxPoint x="500" y="790" as="targetPoint" />
          </mxGeometry>
        </mxCell>
        <mxCell id="g0LMdy6BWs_bw-SiAegQ-160" value="M" style="edgeLabel;html=1;align=center;verticalAlign=middle;resizable=0;points=[];fontSize=12;" vertex="1" connectable="0" parent="g0LMdy6BWs_bw-SiAegQ-159">
          <mxGeometry x="0.5259" y="-1" relative="1" as="geometry">
            <mxPoint as="offset" />
          </mxGeometry>
        </mxCell>
        <mxCell id="g0LMdy6BWs_bw-SiAegQ-161" value="associated&amp;nbsp;" style="rhombus;whiteSpace=wrap;html=1;" vertex="1" parent="1">
          <mxGeometry x="800" y="1390" width="80" height="80" as="geometry" />
        </mxCell>
        <mxCell id="g0LMdy6BWs_bw-SiAegQ-162" value="" style="endArrow=none;html=1;rounded=0;fontSize=12;startSize=8;endSize=8;curved=1;entryX=1;entryY=0.5;entryDx=0;entryDy=0;exitX=0.5;exitY=0;exitDx=0;exitDy=0;" edge="1" parent="1" source="g0LMdy6BWs_bw-SiAegQ-161" target="g0LMdy6BWs_bw-SiAegQ-113">
          <mxGeometry width="50" height="50" relative="1" as="geometry">
            <mxPoint x="690" y="1360" as="sourcePoint" />
            <mxPoint x="740" y="1310" as="targetPoint" />
            <Array as="points">
              <mxPoint x="730" y="1280" />
            </Array>
          </mxGeometry>
        </mxCell>
        <mxCell id="g0LMdy6BWs_bw-SiAegQ-163" value="M" style="edgeLabel;html=1;align=center;verticalAlign=middle;resizable=0;points=[];fontSize=12;" vertex="1" connectable="0" parent="g0LMdy6BWs_bw-SiAegQ-162">
          <mxGeometry x="0.8183" y="2" relative="1" as="geometry">
            <mxPoint as="offset" />
          </mxGeometry>
        </mxCell>
        <mxCell id="g0LMdy6BWs_bw-SiAegQ-164" value="" style="endArrow=none;html=1;rounded=0;fontSize=12;startSize=8;endSize=8;curved=1;entryX=0;entryY=0.75;entryDx=0;entryDy=0;exitX=0.5;exitY=1;exitDx=0;exitDy=0;" edge="1" parent="1" source="g0LMdy6BWs_bw-SiAegQ-161" target="g0LMdy6BWs_bw-SiAegQ-140">
          <mxGeometry width="50" height="50" relative="1" as="geometry">
            <mxPoint x="840" y="1480" as="sourcePoint" />
            <mxPoint x="740" y="1310" as="targetPoint" />
            <Array as="points">
              <mxPoint x="970" y="1590" />
            </Array>
          </mxGeometry>
        </mxCell>
        <mxCell id="g0LMdy6BWs_bw-SiAegQ-165" value="M" style="edgeLabel;html=1;align=center;verticalAlign=middle;resizable=0;points=[];fontSize=12;" vertex="1" connectable="0" parent="g0LMdy6BWs_bw-SiAegQ-164">
          <mxGeometry x="0.7616" y="1" relative="1" as="geometry">
            <mxPoint as="offset" />
          </mxGeometry>
        </mxCell>
        <mxCell id="g0LMdy6BWs_bw-SiAegQ-166" value="suggest" style="rhombus;whiteSpace=wrap;html=1;" vertex="1" parent="1">
          <mxGeometry x="690" y="790" width="80" height="80" as="geometry" />
        </mxCell>
        <mxCell id="g0LMdy6BWs_bw-SiAegQ-167" value="" style="endArrow=none;html=1;rounded=0;fontSize=12;startSize=8;endSize=8;curved=1;entryX=1;entryY=0.75;entryDx=0;entryDy=0;exitX=0.5;exitY=0;exitDx=0;exitDy=0;" edge="1" parent="1" source="g0LMdy6BWs_bw-SiAegQ-166" target="g0LMdy6BWs_bw-SiAegQ-1">
          <mxGeometry width="50" height="50" relative="1" as="geometry">
            <mxPoint x="600" y="790" as="sourcePoint" />
            <mxPoint x="650" y="740" as="targetPoint" />
            <Array as="points">
              <mxPoint x="760" y="630" />
            </Array>
          </mxGeometry>
        </mxCell>
        <mxCell id="g0LMdy6BWs_bw-SiAegQ-170" value="1" style="edgeLabel;html=1;align=center;verticalAlign=middle;resizable=0;points=[];fontSize=12;" vertex="1" connectable="0" parent="g0LMdy6BWs_bw-SiAegQ-167">
          <mxGeometry x="0.8305" y="-2" relative="1" as="geometry">
            <mxPoint as="offset" />
          </mxGeometry>
        </mxCell>
        <mxCell id="g0LMdy6BWs_bw-SiAegQ-168" value="" style="endArrow=none;html=1;rounded=0;fontSize=12;startSize=8;endSize=8;curved=1;entryX=0.5;entryY=1;entryDx=0;entryDy=0;exitX=1;exitY=0.5;exitDx=0;exitDy=0;" edge="1" parent="1" source="g0LMdy6BWs_bw-SiAegQ-80" target="g0LMdy6BWs_bw-SiAegQ-166">
          <mxGeometry width="50" height="50" relative="1" as="geometry">
            <mxPoint x="540" y="860" as="sourcePoint" />
            <mxPoint x="730" y="870" as="targetPoint" />
            <Array as="points">
              <mxPoint x="720" y="1040" />
            </Array>
          </mxGeometry>
        </mxCell>
        <mxCell id="g0LMdy6BWs_bw-SiAegQ-169" value="M" style="edgeLabel;html=1;align=center;verticalAlign=middle;resizable=0;points=[];fontSize=12;" vertex="1" connectable="0" parent="g0LMdy6BWs_bw-SiAegQ-168">
          <mxGeometry x="-0.8574" y="4" relative="1" as="geometry">
            <mxPoint as="offset" />
          </mxGeometry>
        </mxCell>
        <mxCell id="g0LMdy6BWs_bw-SiAegQ-171" value="No._of_family_member" style="ellipse;whiteSpace=wrap;html=1;" vertex="1" parent="1">
          <mxGeometry x="1320" y="520" width="152.5" height="40" as="geometry" />
        </mxCell>
        <mxCell id="g0LMdy6BWs_bw-SiAegQ-172" value="" style="endArrow=none;html=1;rounded=0;fontSize=12;startSize=8;endSize=8;curved=1;entryX=0;entryY=0.5;entryDx=0;entryDy=0;exitX=1;exitY=0.75;exitDx=0;exitDy=0;" edge="1" parent="1" source="g0LMdy6BWs_bw-SiAegQ-14" target="g0LMdy6BWs_bw-SiAegQ-171">
          <mxGeometry width="50" height="50" relative="1" as="geometry">
            <mxPoint x="1240" y="580" as="sourcePoint" />
            <mxPoint x="1290" y="530" as="targetPoint" />
          </mxGeometry>
        </mxCell>
      </root>
    </mxGraphModel>
  </diagram>
</mxfile>
